name D:\school\WTK\thesis\model\3dpredictsim\Results\debug_batch\Pog_s1_tmt_bCst_d05_k800_ig24_pas.mot
datacolumns 128
datarows 4
range 1.11077691 1.14410022
endheader
time	pelvis_tilt	pelvis_list	pelvis_rotation	pelvis_tx	pelvis_ty	pelvis_tz	hip_flexion_l	hip_adduction_l	hip_rotation_l	hip_flexion_r	hip_adduction_r	hip_rotation_r	knee_angle_l	knee_angle_r	ankle_angle_l	ankle_angle_r	subtalar_angle_l	subtalar_angle_r	tmt_angle_l	tmt_angle_r	mtp_angle_l	mtp_angle_r	lumbar_extension	lumbar_bending	lumbar_rotation	arm_flex_l	arm_add_l	arm_rot_l	arm_flex_r	arm_add_r	arm_rot_r	elbow_flex_l	elbow_flex_r	pro_sup_l	pro_sup_r	glut_med1_l/activation	glut_med2_l/activation	glut_med3_l/activation	glut_min1_l/activation	glut_min2_l/activation	glut_min3_l/activation	semimem_l/activation	semiten_l/activation	bifemlh_l/activation	bifemsh_l/activation	sar_l/activation	add_long_l/activation	add_brev_l/activation	add_mag1_l/activation	add_mag2_l/activation	add_mag3_l/activation	tfl_l/activation	pect_l/activation	grac_l/activation	glut_max1_l/activation	glut_max2_l/activation	glut_max3_l/activation	iliacus_l/activation	psoas_l/activation	quad_fem_l/activation	gem_l/activation	peri_l/activation	rect_fem_l/activation	vas_med_l/activation	vas_int_l/activation	vas_lat_l/activation	med_gas_l/activation	lat_gas_l/activation	soleus_l/activation	tib_post_l/activation	flex_dig_l/activation	flex_hal_l/activation	tib_ant_l/activation	per_brev_l/activation	per_long_l/activation	per_tert_l/activation	ext_dig_l/activation	ext_hal_l/activation	ercspn_l/activation	intobl_l/activation	extobl_l/activation	glut_med1_r/activation	glut_med2_r/activation	glut_med3_r/activation	glut_min1_r/activation	glut_min2_r/activation	glut_min3_r/activation	semimem_r/activation	semiten_r/activation	bifemlh_r/activation	bifemsh_r/activation	sar_r/activation	add_long_r/activation	add_brev_r/activation	add_mag1_r/activation	add_mag2_r/activation	add_mag3_r/activation	tfl_r/activation	pect_r/activation	grac_r/activation	glut_max1_r/activation	glut_max2_r/activation	glut_max3_r/activation	iliacus_r/activation	psoas_r/activation	quad_fem_r/activation	gem_r/activation	peri_r/activation	rect_fem_r/activation	vas_med_r/activation	vas_int_r/activation	vas_lat_r/activation	med_gas_r/activation	lat_gas_r/activation	soleus_r/activation	tib_post_r/activation	flex_dig_r/activation	flex_hal_r/activation	tib_ant_r/activation	per_brev_r/activation	per_long_r/activation	per_tert_r/activation	ext_dig_r/activation	ext_hal_r/activation	ercspn_r/activation	intobl_r/activation	extobl_r/activation	
          1.11077691	         -2.92517778	         -2.44303797	          5.98797441	          1.38847114	          0.85528445	         -0.00311699	        -18.15838806	         -2.04076652	          7.95146604	         32.13735251	          3.33607256	         -2.80908825	         -8.90799976	        -15.68343219	         -0.64806351	          5.53299603	         11.81497458	         -2.94218025	          2.07045462	          0.03777258	         23.00188980	         -0.10966182	         -2.16952064	          1.04887156	         -2.01370185	          7.69504794	        -13.47432694	         17.77927049	         -9.27800524	        -13.59123947	          7.42189306	         39.44265648	         14.09702291	         86.51662706	         86.51662706	          0.25686504	          0.09796835	          0.05109295	          0.31739486	          0.20083368	          0.09866480	          0.05000335	          0.05000044	          0.05000033	          0.07643567	          0.10330970	          0.12375440	          0.05000158	          0.05000121	          0.05000288	          0.05000225	          0.30984022	          0.05014191	          0.05000105	          0.05000675	          0.05000429	          0.05000273	          0.38213347	          0.60879196	          0.05000030	          0.05000101	          0.05000029	          0.23060429	          0.13223669	          0.05008535	          0.05055205	          0.29795521	          0.40221892	          0.28218957	          0.24913308	          0.27103543	          0.34296752	          0.05000003	          0.06886530	          0.17609611	          0.05000024	          0.05000006	          0.05000021	          0.05000003	          0.05000006	          0.05000009	          0.05001644	          0.05000140	          0.05000179	          0.05000139	          0.05000133	          0.05000310	          0.05925581	          0.05925571	          0.27447099	          0.05000064	          0.05000086	          0.11687902	          0.20528330	          0.17098770	          0.16999293	          0.11769368	          0.05000287	          0.05042021	          0.05925680	          0.05000950	          0.08611270	          0.11741203	          0.05566855	          0.05809728	          0.24552811	          0.05426485	          0.05689929	          0.05439049	          0.15184870	          0.15347893	          0.12931235	          0.05925613	          0.05000352	          0.05925645	          0.05000014	          0.05000293	          0.05001756	          0.54101209	          0.37421920	          0.21410497	          0.30644152	          0.58603946	          0.26155127	          0.06087449	          0.09473694	          0.09613912	
          1.12188468	         -2.91500868	         -2.54409016	          6.23779687	          1.40560038	          0.85421487	         -0.00288985	        -17.87850272	         -2.35088570	          7.76112042	         31.45580953	          3.76978125	         -2.62050477	        -11.12204310	        -15.54373505	         -1.61328337	          4.97595149	         12.93352353	         -3.45971293	          1.72350847	          0.05150095	         24.06213715	         -0.10175904	         -1.94280867	          1.29172990	         -2.10635679	          7.39398761	        -13.50353375	         17.94654422	        -10.42692342	        -13.58574686	          7.21436653	         40.68261474	         14.02885821	         86.51662706	         86.51662706	          0.21674019	          0.08266472	          0.05106304	          0.26781480	          0.16946150	          0.08325243	          0.05000652	          0.05000058	          0.05000072	          0.06449567	          0.08717211	          0.20470221	          0.15033407	          0.07022564	          0.05001314	          0.05000220	          0.26144040	          0.11173843	          0.05923127	          0.05000444	          0.05000239	          0.05000183	          0.32244037	          0.54795096	          0.05001665	          0.05926260	          0.05925676	          0.19458158	          0.13853246	          0.13853639	          0.13853619	          0.25141153	          0.33938819	          0.23810865	          0.21021605	          0.22869734	          0.28939274	          0.05000002	          0.05810793	          0.14858837	          0.05000015	          0.05000005	          0.05000017	          0.06019906	          0.07022654	          0.05000012	          0.05000009	          0.05000027	          0.06489064	          0.05000023	          0.05000035	          0.05000033	          0.05000007	          0.05000013	          0.23509529	          0.05000014	          0.05000315	          0.09862194	          0.17321640	          0.33650737	          0.23790703	          0.10706876	          0.05000034	          0.05000537	          0.05000103	          0.05925634	          0.09198494	          0.13960381	          0.05000019	          0.05000067	          0.56652412	          0.13623583	          0.11193485	          0.07022660	          0.23886897	          0.23897552	          0.20392367	          0.05000001	          0.05000004	          0.05000000	          0.05000036	          0.07021960	          0.05000116	          0.63576421	          0.31576288	          0.21649820	          0.52442836	          0.62275782	          0.27221916	          0.05136529	          0.07993806	          0.08112121	
          1.13299245	         -2.90027676	         -2.64600028	          6.45859015	          1.42299899	          0.85308622	         -0.00267799	        -17.51297794	         -2.64655576	          7.56088030	         30.61812260	          4.13209525	         -2.34553197	        -13.47342080	        -15.88727587	         -2.74725720	          4.44106431	         13.97918013	         -4.00966211	          1.36129640	         -0.03904786	         24.88641712	         -0.15260696	         -1.69650851	          1.53931171	         -2.18736812	          7.00258582	        -13.53452627	         18.03477562	        -11.57325137	        -13.58554501	          7.06643372	         41.90212182	         13.97391431	         86.51662706	         86.51662706	          0.31621702	          0.06975168	          0.05000037	          0.22598012	          0.14298998	          0.07024760	          0.05000273	          0.05000036	          0.05000038	          0.05442083	          0.07355525	          0.17594338	          0.25516471	          0.05925862	          0.05925233	          0.05002710	          0.22060192	          0.09428756	          0.05000350	          0.05002396	          0.05002132	          0.05004724	          0.27207193	          0.49808106	          0.05501990	          0.05000615	          0.05000034	          0.16418595	          0.11689573	          0.11689610	          0.11689575	          0.21213845	          0.28637227	          0.20091362	          0.17737818	          0.19297263	          0.24418674	          0.06789120	          0.07678068	          0.18219574	          0.05000028	          0.13825813	          0.05000104	          0.07446726	          0.05925645	          0.05000019	          0.30177280	          0.27459786	          0.32215250	          0.05000210	          0.05000091	          0.20288575	          0.09113186	          0.10522628	          0.20527711	          0.05000080	          0.05000157	          0.08322452	          0.20425081	          0.28394183	          0.20689127	          0.15442810	          0.05000061	          0.07022535	          0.14995690	          0.05000027	          0.07761611	          0.11779693	          0.05537151	          0.05000098	          0.47802726	          0.11495457	          0.23763254	          0.05925650	          0.20155530	          0.20164526	          0.17206881	          0.05925652	          0.05925652	          0.05925648	          0.05000027	          0.05925222	          0.05925632	          0.53645163	          0.41111960	          0.20346062	          0.44250841	          0.63644684	          0.22969590	          0.05749468	          0.08322786	          0.06844926	
          1.14410022	         -2.88300595	         -2.74534715	          6.64494307	          1.44044474	          0.85191815	         -0.00245316	        -17.03162489	         -2.91971560	          7.35740312	         29.65961870	          4.45300134	         -2.05155423	        -15.99691521	        -16.26241475	         -3.93880908	          4.13315812	         14.93283809	         -4.58390622	          0.96165727	         -0.01541790	         25.24848276	         -0.16794665	         -1.45153373	          1.78599364	         -2.25764405	          6.55992300	        -13.57052777	         18.06424454	        -12.66233641	        -13.58871943	          6.99895883	         43.07538535	         13.89474154	         86.51662706	         86.51662706	          0.26682081	          0.05885580	          0.05000005	          0.20661233	          0.12065359	          0.05927428	          0.05000571	          0.05000040	          0.05000038	          0.05000025	          0.06206569	          0.18318829	          0.21530598	          0.05000222	          0.05000136	          0.05000175	          0.18614472	          0.07956003	          0.05000058	          0.05000109	          0.05000065	          0.05000036	          0.22957154	          0.44054507	          0.05000007	          0.05000041	          0.05000022	          0.13853842	          0.09863554	          0.09863582	          0.09863551	          0.17900024	          0.24163798	          0.16952884	          0.14966995	          0.16282856	          0.20604245	          0.17324972	          0.12105445	          0.15373508	          0.33079769	          0.24427245	          0.13501133	          0.10487145	          0.05000002	          0.05000007	          0.39911910	          0.42859961	          0.47489142	          0.25570771	          0.22840069	          0.32790007	          0.08197950	          0.12502243	          0.17321075	          0.07022705	          0.05000121	          0.07022408	          0.17234480	          0.23958767	          0.22034670	          0.17732616	          0.05000036	          0.05925631	          0.12653402	          0.26524580	          0.20084111	          0.16936382	          0.05000019	          0.05000019	          0.40335455	          0.09699784	          0.20063776	          0.05000008	          0.19884344	          0.24681697	          0.19042970	          0.05000007	          0.05000012	          0.05000002	          0.05000001	          0.05000025	          0.05000020	          0.68949755	          0.34689872	          0.17167816	          0.67969734	          0.68439927	          0.39959423	          0.08280988	          0.07022686	          0.05775680	
